<?xml version="1.0" standalone="no"?>
<!DOCTYPE svg PUBLIC "-//W3C//DTD SVG 20010904//EN"
 "http://www.w3.org/TR/2001/REC-SVG-20010904/DTD/svg10.dtd">
<svg version="1.0" xmlns="http://www.w3.org/2000/svg"
 width="300.000000pt" height="300.000000pt" viewBox="0 0 300.000000 300.000000"
 preserveAspectRatio="xMidYMid meet">
<metadata>
Created by potrace 1.10, written by Peter Selinger 2001-2011
</metadata>
<g transform="translate(0.000000,300.000000) scale(0.100000,-0.100000)"
fill="#000000" stroke="none">
<path d="M1977 2353 c-13 -12 -7 -44 8 -49 24 -10 47 14 34 37 -10 19 -30 25
-42 12z"/>
<path d="M1390 2315 c-300 -61 -547 -297 -619 -590 -32 -132 -33 -135 -19
-135 7 0 31 10 53 23 33 18 41 29 46 62 22 127 84 240 194 350 118 120 264
193 421 210 l59 7 -4 44 c-3 42 -4 44 -35 43 -17 0 -60 -7 -96 -14z m80 -27
c0 -11 -36 -25 -84 -32 -21 -4 -68 -18 -105 -33 -213 -84 -390 -275 -446 -483
-18 -66 -30 -88 -41 -78 -11 12 26 123 74 218 66 131 179 250 312 326 43 25
137 59 209 77 62 16 81 17 81 5z"/>
<path d="M1564 2287 l-1 -45 59 -6 c119 -14 259 -70 351 -140 46 -35 48 -36
92 -24 25 7 44 17 42 22 -7 21 -139 113 -213 150 -79 39 -181 69 -274 80 l-55
7 -1 -44z m178 -18 c110 -27 326 -145 289 -157 -7 -2 -26 5 -42 17 -35 26
-189 105 -209 108 -35 4 -160 38 -160 43 0 11 46 7 122 -11z"/>
<path d="M998 2272 c-7 -10 -27 -24 -45 -31 -65 -26 -209 -206 -233 -291 -13
-44 -5 -37 30 29 33 61 156 210 202 244 57 42 39 4 -33 -71 -74 -76 -119 -130
-155 -186 -18 -28 -18 -29 2 -16 11 7 31 29 45 49 23 35 139 161 208 227 18
18 31 38 28 46 -4 9 -6 7 -6 -4 -1 -11 -9 -18 -21 -18 -25 0 -26 16 -2 29 9 6
12 11 5 11 -6 0 -18 -8 -25 -18z"/>
<path d="M2082 2258 c2 -15 10 -23 23 -23 13 0 21 8 23 23 3 18 -1 22 -23 22
-22 0 -26 -4 -23 -22z"/>
<path d="M2595 2234 c-49 -14 -122 -31 -161 -40 -126 -26 -289 -75 -304 -91
-13 -14 -13 -15 3 -9 28 9 244 67 312 83 111 26 130 32 200 57 89 31 66 31
-50 0z"/>
<path d="M2682 2230 c-79 -31 -135 -68 -153 -101 -6 -13 14 -2 53 29 35 27 86
56 113 66 50 16 89 36 70 35 -5 0 -43 -13 -83 -29z"/>
<path d="M1357 2130 c-58 -18 -174 -87 -164 -96 3 -3 29 8 59 25 91 52 161 71
258 71 76 0 216 -23 275 -45 16 -6 17 -5 9 4 -7 7 -49 24 -95 37 -106 31 -254
33 -342 4z"/>
<path d="M2455 2126 c-138 -77 -455 -181 -865 -285 -79 -20 -211 -57 -320 -90
l-65 -20 52 5 c29 3 84 14 122 24 39 10 69 14 66 10 -3 -4 -46 -18 -97 -30
-186 -46 -257 -82 -283 -145 -13 -32 -21 -165 -9 -165 4 0 32 21 63 47 31 26
58 48 61 50 2 2 3 19 2 38 -2 33 -1 35 50 50 28 8 63 15 77 15 19 0 43 18 88
66 35 37 63 72 63 79 0 12 112 55 144 55 22 0 133 24 236 51 41 11 86 22 100
25 48 10 105 26 178 51 40 14 75 23 78 20 11 -10 -141 -59 -366 -117 -129 -34
-251 -66 -272 -72 -25 -7 -55 -32 -99 -81 -52 -57 -59 -69 -39 -64 14 4 63 16
110 27 47 11 95 23 108 26 22 6 22 5 22 -90 0 -94 -10 -136 -31 -136 -17 0
-142 -107 -319 -275 -52 -50 -125 -115 -162 -144 -38 -30 -68 -58 -68 -63 0
-22 -33 -3 -72 42 -38 44 -111 155 -120 182 -5 13 -78 -22 -78 -37 0 -21 74
-134 128 -194 28 -33 52 -62 52 -65 0 -3 -8 -6 -17 -6 -34 0 -353 -283 -353
-312 0 -16 6 -15 42 14 75 58 251 209 323 278 39 37 124 113 190 169 66 55
156 133 200 172 44 39 155 135 247 214 91 79 169 149 173 155 4 6 73 64 153
130 81 65 170 140 197 165 71 66 118 97 231 154 55 28 111 62 124 76 29 31 11
32 -45 1z m-355 -210 c0 -2 -25 -23 -56 -46 -51 -38 -173 -89 -216 -90 -9 0
-30 -12 -47 -26 -25 -21 -31 -33 -31 -65 0 -26 -7 -46 -20 -59 -30 -30 -40
-24 -40 23 0 66 -20 80 -99 66 -34 -6 -65 -9 -68 -5 -11 11 29 45 61 51 17 4
63 16 101 26 39 11 88 25 110 31 22 5 49 14 60 18 11 5 50 15 87 24 37 8 86
24 110 35 48 22 48 23 48 17z m-16 -58 c-40 -44 -47 -50 -147 -120 -49 -34
-102 -78 -119 -99 -30 -38 -106 -95 -114 -86 -3 2 14 21 36 41 37 33 40 40 40
89 l0 53 77 18 c95 22 124 36 187 92 56 51 83 59 40 12z m-750 -173 c-21 -16
-79 -35 -107 -35 -25 0 -77 -54 -77 -79 0 -19 -35 -61 -52 -61 -12 0 -10 55 3
83 13 29 31 40 122 76 100 40 153 48 111 16z m-416 -587 c22 -35 50 -73 61
-85 33 -35 24 -50 -10 -17 -32 31 -109 140 -109 155 0 23 21 4 58 -53z"/>
<path d="M2369 1967 c-75 -73 -145 -143 -157 -157 l-21 -26 19 -62 c11 -34 22
-91 26 -127 l7 -65 42 0 43 0 -4 43 c-9 83 -27 173 -46 226 -22 66 -22 61 0
61 21 0 242 223 231 234 -3 3 -66 -54 -140 -127z m-96 -271 c10 -45 13 -75 7
-85 -7 -12 -9 -8 -10 17 0 18 -7 49 -15 69 -16 39 -21 93 -6 78 5 -6 16 -41
24 -79z"/>
<path d="M1424 2060 c-95 -25 -129 -40 -213 -95 -83 -55 -139 -116 -184 -202
-24 -48 -37 -63 -54 -63 -12 0 -25 -5 -29 -11 -9 -15 53 -2 83 17 11 7 33 39
47 70 50 109 198 220 346 259 109 29 310 13 375 -29 24 -16 29 -16 97 9 39 14
78 30 87 36 28 18 -50 1 -93 -21 -39 -19 -39 -19 -78 1 -47 24 -181 49 -258
48 -30 0 -87 -8 -126 -19z"/>
<path d="M1645 1948 c-44 -16 -107 -40 -140 -53 -33 -13 -116 -44 -185 -68
-136 -49 -273 -110 -225 -100 24 5 588 210 670 244 17 6 15 8 -10 7 -16 0 -66
-13 -110 -30z"/>
<path d="M2396 1784 c-8 -8 -13 -21 -9 -30 8 -22 47 -13 51 12 4 27 -22 38
-42 18z"/>
<path d="M1990 1603 c-91 -86 -192 -176 -225 -201 -33 -25 -64 -50 -70 -55
-15 -15 14 2 51 30 17 13 37 23 45 23 8 0 37 21 64 47 143 132 192 181 213
208 13 17 39 41 59 55 35 24 54 51 36 49 -4 0 -82 -70 -173 -156z"/>
<path d="M1010 1676 c-52 -18 -107 -38 -122 -46 -31 -15 -38 -34 -10 -26 96
26 170 53 182 64 8 8 28 21 45 28 54 24 2 13 -95 -20z"/>
<path d="M2104 1670 c-7 -7 -9 -39 -6 -85 l5 -75 -41 0 c-22 0 -44 -5 -48 -11
-5 -9 6 -10 40 -7 l46 6 0 -37 c0 -92 -58 -228 -139 -328 -60 -73 -172 -151
-262 -183 -114 -39 -309 -37 -388 5 -22 11 -29 10 -63 -13 -21 -13 -38 -27
-38 -29 0 -8 45 10 52 20 4 7 29 3 72 -11 288 -95 624 62 749 349 37 84 48
145 48 253 -1 114 -10 163 -27 146z"/>
<path d="M968 1609 c-10 -5 -20 -28 -23 -54 -6 -38 -11 -45 -35 -50 -15 -3
-36 -15 -45 -25 -15 -17 -8 -15 43 7 59 26 62 29 73 76 13 54 11 60 -13 46z"/>
<path d="M783 1587 c-46 -22 -61 -54 -20 -41 89 28 121 43 95 43 -14 1 -28 5
-30 10 -1 5 -22 -1 -45 -12z"/>
<path d="M2414 1579 c-10 -17 13 -36 27 -22 12 12 4 33 -11 33 -5 0 -12 -5
-16 -11z"/>
<path d="M588 1539 c-21 -12 -23 -40 -6 -57 36 -36 96 11 62 49 -19 21 -31 23
-56 8z m50 -32 c3 -12 -3 -17 -21 -17 -31 0 -40 10 -25 27 15 18 42 12 46 -10z"/>
<path d="M1362 1515 c-181 -35 -213 -48 -275 -113 -24 -25 -26 -35 -29 -122
l-3 -95 -31 53 c-18 31 -35 49 -38 43 -10 -15 44 -111 62 -111 11 0 13 -14 10
-70 -2 -38 -2 -70 0 -70 2 0 35 26 74 58 39 31 95 76 125 100 30 23 51 43 46
43 -4 1 -34 0 -65 -1 l-58 -2 0 70 0 70 63 11 c34 6 82 13 107 16 25 4 54 8
65 10 19 4 144 146 128 144 -5 0 -86 -16 -181 -34z m78 -40 c0 -23 -55 -43
-152 -56 -122 -16 -138 -29 -138 -118 0 -55 4 -71 20 -86 11 -10 20 -24 20
-31 0 -13 -75 -74 -90 -74 -14 0 -19 61 -13 155 6 90 8 97 37 126 43 43 75 58
169 79 105 24 147 25 147 5z"/>
<path d="M771 1527 l-33 -10 7 -51 c3 -28 8 -52 9 -54 2 -1 20 5 40 14 34 17
36 20 36 66 0 52 -2 53 -59 35z"/>
<path d="M2215 1512 c-16 -2 -33 -7 -37 -10 -4 -4 74 -6 174 -4 145 3 179 1
176 -10 -3 -9 -32 -14 -97 -16 -77 -2 -91 -5 -81 -16 7 -10 8 -16 0 -21 -15
-9 -30 3 -23 21 5 13 -3 15 -43 12 -43 -3 -49 -6 -52 -27 l-4 -24 146 5 c111
4 146 2 146 -7 0 -14 -64 -25 -144 -25 -40 -1 -47 -3 -33 -11 14 -8 16 -14 6
-25 -10 -12 1 -14 75 -14 70 0 86 -3 86 -15 0 -12 -16 -15 -87 -15 -104 0
-104 -10 -1 -16 66 -4 76 -2 94 17 18 20 18 22 1 34 -22 16 -22 23 4 44 19 15
20 20 8 39 -11 18 -11 24 5 41 16 17 17 23 6 37 -12 13 -35 15 -154 12 -78 -2
-154 -4 -171 -6z"/>
<path d="M934 1480 c-5 -5 -48 -29 -94 -52 -64 -33 -86 -48 -88 -65 -2 -13 -8
-23 -14 -23 -5 0 -8 7 -4 15 7 20 10 20 -81 -19 -108 -46 -123 -50 -123 -34 0
7 42 29 92 49 51 19 94 41 96 47 4 14 0 13 -110 -30 -90 -35 -107 -51 -90 -79
16 -24 15 -29 -3 -29 -8 0 -15 6 -15 14 0 31 -59 35 -86 5 -19 -21 -18 -21 9
-44 15 -13 27 -27 27 -31 0 -4 9 -18 21 -30 l20 -22 111 49 c60 26 124 53 141
59 46 15 134 59 120 60 -7 0 -13 7 -13 16 0 11 -5 14 -17 9 -10 -4 -31 -12
-46 -17 -21 -8 -27 -16 -24 -29 5 -20 -9 -27 -15 -7 -4 11 -141 -38 -230 -83
-46 -24 -69 -25 -47 -4 8 8 59 33 114 55 55 23 118 49 140 60 22 10 57 25 78
34 29 12 37 20 37 41 0 17 5 25 13 22 6 -2 11 -10 10 -16 -4 -15 2 -14 38 5
24 12 28 18 19 29 -7 8 -7 15 -1 19 5 4 14 -1 19 -10 12 -22 32 -9 32 22 0 25
-18 32 -36 14z m-454 -199 c0 -10 -19 -26 -42 -34 -27 -9 -22 18 5 31 28 13
37 14 37 3z"/>
<path d="M944 1409 c-3 -6 -22 -18 -41 -26 -24 -10 -33 -19 -29 -29 3 -9 6
-20 6 -24 0 -5 20 1 45 13 36 18 44 27 45 50 0 27 -13 36 -26 16z"/>
<path d="M2218 1365 c-5 -24 -3 -25 43 -25 27 0 49 4 49 9 0 5 3 16 6 25 5 13
-2 16 -44 16 -45 0 -50 -2 -54 -25z"/>
<path d="M1718 1331 l-58 -46 0 -107 c0 -58 -3 -113 -6 -122 -12 -31 18 -16
72 37 l55 52 -3 116 -3 116 -57 -46z m30 -95 c2 -45 -1 -63 -18 -86 -33 -46
-41 -37 -39 40 3 114 51 154 57 46z"/>
<path d="M927 1323 c-32 -18 -43 -29 -35 -34 10 -7 10 -11 0 -21 -11 -11 -15
-10 -23 4 -9 16 -13 16 -53 -4 -33 -16 -42 -25 -39 -39 3 -11 0 -19 -6 -19 -6
0 -11 7 -11 15 0 21 -12 19 -98 -19 -43 -18 -93 -38 -113 -45 -35 -11 -66 -52
-54 -72 12 -18 69 -8 145 26 43 19 86 35 96 35 24 0 51 17 42 25 -8 8 -79 -13
-163 -48 -73 -31 -115 -42 -115 -31 0 9 31 22 245 97 137 49 234 102 246 135
11 29 -4 28 -64 -5z"/>
<path d="M2194 1283 c-18 -74 -90 -190 -169 -269 -121 -121 -265 -187 -445
-200 -98 -8 -238 16 -328 57 l-69 30 -143 -95 c-134 -90 -177 -114 -152 -83 6
7 72 53 146 102 74 50 135 93 135 96 2 20 -35 16 -69 -9 -82 -59 -216 -166
-227 -183 -7 -9 -61 -48 -120 -85 -132 -83 -153 -100 -93 -77 25 10 47 20 50
24 3 3 21 14 40 24 19 10 55 32 80 50 25 18 59 36 77 39 39 9 151 79 178 113
l20 24 86 -40 c126 -59 201 -75 349 -74 92 0 145 6 201 21 223 60 408 217 508
433 61 133 61 129 2 129 -47 0 -51 -2 -57 -27z m41 -45 c-19 -86 -121 -229
-223 -314 -77 -63 -225 -134 -312 -149 -38 -6 -75 -8 -81 -4 -8 4 3 10 27 14
245 41 450 194 550 413 36 77 50 92 39 40z m-987 -404 c20 -9 48 -18 62 -20
14 -3 39 -9 55 -14 17 -5 47 -12 68 -15 63 -10 45 -28 -20 -20 -60 7 -219 60
-229 76 -8 14 23 11 64 -7z m317 -64 c0 -29 -32 -41 -41 -16 -9 24 4 48 23 44
12 -2 18 -12 18 -28z"/>
<path d="M1555 1234 c-44 -36 -154 -115 -244 -176 -132 -89 -161 -112 -147
-120 19 -11 14 -13 266 150 112 73 174 119 172 128 -2 8 7 30 18 49 12 19 20
35 18 34 -2 0 -39 -30 -83 -65z"/>
<path d="M2331 1196 c-15 -27 -7 -61 15 -70 27 -10 94 6 104 25 15 27 2 48
-38 59 -54 15 -67 13 -81 -14z m57 2 c30 -30 -1 -73 -36 -51 -23 14 -25 29 -7
47 20 19 27 20 43 4z m47 -28 c0 -13 -6 -25 -12 -27 -9 -3 -13 6 -13 27 0 21
4 30 13 28 6 -3 12 -15 12 -28z"/>
<path d="M1507 1109 c-54 -34 -96 -63 -94 -66 9 -9 114 49 157 87 25 21 43 39
40 39 -3 0 -49 -27 -103 -60z"/>
<path d="M692 1048 c-30 -30 -3 -72 44 -66 34 4 53 31 38 56 -13 21 -64 28
-82 10z"/>
<path d="M1352 1008 c-18 -11 -31 -23 -28 -26 3 -3 12 0 19 7 11 9 28 9 68 0
61 -13 215 -7 232 10 8 8 -21 11 -107 11 -64 0 -125 4 -135 9 -12 7 -26 4 -49
-11z"/>
<path d="M758 881 c-62 -54 -126 -109 -141 -122 -69 -58 -157 -142 -157 -151
0 -9 168 131 435 364 5 5 2 8 -7 8 -9 0 -68 -44 -130 -99z"/>
<path d="M826 886 c-46 -40 -146 -124 -221 -186 -75 -62 -134 -115 -131 -118
3 -3 33 16 66 41 58 45 80 56 80 39 0 -4 -5 -13 -12 -20 -7 -7 -8 -12 -4 -12
5 0 52 40 105 88 53 48 127 115 165 147 46 40 64 61 53 63 -9 2 -14 9 -10 18
9 25 -4 16 -91 -60z"/>
<path d="M2140 884 c0 -9 7 -14 17 -12 25 5 28 28 4 28 -12 0 -21 -6 -21 -16z"/>
<path d="M2202 891 c-10 -6 -7 -10 13 -15 28 -7 49 0 40 15 -8 11 -36 12 -53
0z"/>
<path d="M2090 838 c0 -17 112 -16 118 0 2 8 -15 12 -57 12 -42 0 -61 -4 -61
-12z"/>
<path d="M2025 790 c-7 -11 -7 -11 77 -13 39 0 63 4 66 11 5 15 -134 17 -143
2z"/>
<path d="M1985 739 c-4 -5 -5 -9 -3 -10 39 -6 88 -3 88 7 0 14 -77 17 -85 3z"/>
<path d="M1952 689 c2 -6 7 -10 11 -10 4 1 19 1 33 1 14 0 23 4 20 8 -8 13
-68 13 -64 1z"/>
<path d="M868 438 c-6 -3 17 -8 50 -10 34 -1 62 0 62 4 0 8 -99 15 -112 6z"/>
<path d="M990 435 c0 -13 44 -15 363 -15 199 0 379 3 400 7 94 15 -12 22 -375
23 -342 1 -388 -1 -388 -15z"/>
</g>
</svg>
